<svg width="160" height="32" viewBox="0 0 160 32" fill="none" xmlns="http://www.w3.org/2000/svg">
<path opacity="0.991" fill-rule="evenodd" clip-rule="evenodd" d="M26.1563 8.46875C26.0753 7.93519 25.9503 7.39356 25.7813 6.84375C25.9002 6.82525 26.0044 6.78356 26.0938 6.71875C26.5866 6.61837 27.0033 6.38919 27.3438 6.03125C27.7821 5.63417 27.9904 5.13417 27.9688 4.53125C27.8781 3.63141 27.4823 2.89182 26.7813 2.3125C26.2743 1.94484 25.7118 1.81984 25.0938 1.9375C24.7848 2.00862 24.514 2.14403 24.2813 2.34375C24.0981 2.44317 23.9314 2.56817 23.7813 2.71875C23.4485 2.3463 23.1152 1.9713 22.7812 1.59375C24.0186 0.171253 25.5186 -0.19333 27.2813 0.499999C29.0165 1.56411 29.8603 3.1162 29.8125 5.15625C29.6126 6.29681 29.0189 7.16137 28.0313 7.75C27.4309 8.05769 26.8059 8.29725 26.1563 8.46875Z" fill="#854323"/>
<path opacity="0.993" fill-rule="evenodd" clip-rule="evenodd" d="M7.78125 0.531248C7.61931 0.985792 7.46306 1.44412 7.3125 1.90625C7.28644 1.98475 7.23438 2.02641 7.15625 2.03125C6.14438 1.71928 5.30063 1.96928 4.625 2.78125C4.29666 3.18793 4.06749 3.64626 3.9375 4.15625C3.8895 4.55937 3.92075 4.9552 4.03125 5.34375C3.96903 6.14516 3.9482 6.95769 3.96875 7.78125C2.22455 6.70344 1.67246 5.1826 2.3125 3.21875C2.67991 2.41436 3.16949 1.69561 3.78125 1.0625C5.00616 0.069485 6.3395 -0.107598 7.78125 0.531248Z" fill="#7E3E20"/>
<path opacity="0.996" fill-rule="evenodd" clip-rule="evenodd" d="M22.7812 1.59375C23.1152 1.9713 23.4485 2.3463 23.7812 2.71875C23.6562 2.86458 23.5312 3.01042 23.4062 3.15625C22.6969 3.90916 22.3739 4.80499 22.4375 5.84375C22.9451 6.20534 23.4346 6.59075 23.9062 7C24.5425 7.06538 25.1675 7.01331 25.7812 6.84375C25.9503 7.39356 26.0753 7.93519 26.1562 8.46875C25.9786 8.54819 25.7911 8.60025 25.5938 8.625C25.9042 8.98675 26.1751 9.37212 26.4062 9.78125C26.3723 9.785 26.3515 9.80581 26.3438 9.84375C26.5363 11.0054 26.4946 12.1513 26.2188 13.2812C25.9854 13.0075 25.6937 12.8096 25.3438 12.6875C24.7961 12.4736 24.2336 12.3174 23.6562 12.2188C23.3943 12.1495 23.1234 12.087 22.8438 12.0312C23.2409 9.5155 22.6679 7.24463 21.125 5.21875C20.9977 5.08088 20.8623 4.95588 20.7188 4.84375C21.0908 3.55749 21.7783 2.47416 22.7812 1.59375Z" fill="#8C4727"/>
<path fill-rule="evenodd" clip-rule="evenodd" d="M27.3437 6.03125C27.0927 5.29984 26.7281 4.63318 26.25 4.03125C25.6955 3.43502 25.1017 2.88293 24.4687 2.375C24.4095 2.34483 24.347 2.33441 24.2812 2.34375C24.514 2.14403 24.7848 2.00862 25.0937 1.9375C25.7118 1.81984 26.2743 1.94484 26.7812 2.3125C27.4823 2.89183 27.8781 3.63141 27.9687 4.53125C27.9904 5.13418 27.7821 5.63418 27.3437 6.03125Z" fill="#E8B29E"/>
<path fill-rule="evenodd" clip-rule="evenodd" d="M7.15625 2.03125C7.71294 2.31012 8.17125 2.70595 8.53125 3.21875C7.33475 4.15122 6.54306 5.35955 6.15625 6.84375C5.19865 6.679 4.49032 6.17902 4.03125 5.34375C3.92075 4.9552 3.8895 4.55937 3.9375 4.15625C4.06749 3.64626 4.29666 3.18793 4.625 2.78125C5.30062 1.96928 6.14437 1.71928 7.15625 2.03125Z" fill="#E7B19D"/>
<path fill-rule="evenodd" clip-rule="evenodd" d="M24.2812 2.34375C24.347 2.3344 24.4095 2.34482 24.4688 2.375C25.1018 2.88293 25.6955 3.43502 26.25 4.03125C26.7281 4.63318 27.0928 5.29984 27.3438 6.03125C27.0033 6.38919 26.5866 6.61837 26.0938 6.71875C25.6051 5.21918 24.7093 4.03168 23.4062 3.15625C23.5312 3.01042 23.6562 2.86458 23.7812 2.71875C23.9314 2.56817 24.0981 2.44317 24.2812 2.34375Z" fill="#EBB6A3"/>
<path fill-rule="evenodd" clip-rule="evenodd" d="M8.53125 3.21875C9.24831 3.97422 9.54 4.87006 9.40625 5.90625C8.90044 6.23486 8.42125 6.59944 7.96875 7C7.46656 7.046 6.96656 7.03556 6.46875 6.96875C6.34981 6.95025 6.24564 6.90856 6.15625 6.84375C6.54306 5.35956 7.33475 4.15122 8.53125 3.21875Z" fill="#EBB7A3"/>
<path opacity="0.996" fill-rule="evenodd" clip-rule="evenodd" d="M10.7812 3.71875C10.9433 4.10522 11.1204 4.48022 11.3125 4.84375C12.5307 4.38897 13.7911 4.1598 15.0937 4.15625C14.0837 5.21886 13.5108 6.48969 13.375 7.96875C13.2438 9.73531 13.5876 11.402 14.4062 12.9688C14.2696 12.8901 14.1237 12.8276 13.9687 12.7812C13.0045 12.2421 11.9629 11.9713 10.8437 11.9688C10.8021 11.9688 10.7604 11.9688 10.7187 11.9688C10.6301 11.9093 10.5259 11.8885 10.4062 11.9062C9.71869 9.29375 9.74994 6.68956 10.5 4.09375C10.5776 3.94629 10.6714 3.82129 10.7812 3.71875Z" fill="#8C4727"/>
<path opacity="0.999" fill-rule="evenodd" clip-rule="evenodd" d="M20.7187 4.84375C20.8623 4.95588 20.9977 5.08088 21.125 5.21875C22.6679 7.24462 23.2409 9.5155 22.8437 12.0312C21.858 11.9281 20.8789 11.9489 19.9062 12.0937C19.7396 12.1146 19.5729 12.1354 19.4062 12.1562C19.8714 11.8233 20.1527 11.3649 20.25 10.7812C20.4662 9.34619 20.0391 8.14825 18.9687 7.1875C17.4876 6.50606 16.5188 6.95394 16.0625 8.53125C15.8921 9.65906 16.1421 10.6799 16.8125 11.5937C17.2436 12.1194 17.7956 12.4111 18.4687 12.4687C17.9928 12.6861 17.5553 12.9674 17.1562 13.3125C17.0833 13.3229 17.0104 13.3333 16.9375 13.3437C16.2179 13.2734 15.4991 13.2629 14.7812 13.3125C14.6627 13.1832 14.5377 13.0687 14.4062 12.9687C13.5876 11.402 13.2438 9.73531 13.375 7.96875C13.5108 6.48969 14.0837 5.21886 15.0937 4.15625C17.015 4.01502 18.89 4.24419 20.7187 4.84375Z" fill="#914B2A"/>
<path fill-rule="evenodd" clip-rule="evenodd" d="M23.4063 3.15625C24.7093 4.03168 25.6051 5.21918 26.0938 6.71875C26.0044 6.78356 25.9002 6.82525 25.7813 6.84375C25.1675 7.01331 24.5425 7.06537 23.9063 7C23.4346 6.59075 22.9451 6.20534 22.4375 5.84375C22.3739 4.80499 22.6969 3.90916 23.4063 3.15625Z" fill="#EFBBA7"/>
<path opacity="0.991" fill-rule="evenodd" clip-rule="evenodd" d="M4.03125 5.34375C4.49032 6.17902 5.19865 6.679 6.15625 6.84375C6.24564 6.90856 6.34981 6.95025 6.46875 6.96875C6.451 7.82494 6.48225 8.67906 6.5625 9.53125C6.69187 10.5157 6.84812 11.4949 7.03125 12.4688C6.98956 12.5104 6.94794 12.5521 6.90625 12.5938C5.95807 12.8213 5.44766 13.4254 5.375 14.4062C5.34384 14.6345 5.33342 14.8636 5.34375 15.0938C4.9416 14.0462 4.64993 12.9837 4.46875 11.9062C4.65029 11.2891 4.9107 10.7058 5.25 10.1562C5.58155 9.64769 5.9253 9.14769 6.28125 8.65625C5.48049 8.438 4.70965 8.14638 3.96875 7.78125C3.9482 6.95769 3.96903 6.14516 4.03125 5.34375Z" fill="#814021"/>
<path fill-rule="evenodd" clip-rule="evenodd" d="M7.78125 0.53125C9.08244 1.31157 10.0824 2.37407 10.7813 3.71875C10.6714 3.82129 10.5776 3.94629 10.5 4.09375C9.74994 6.68956 9.71869 9.29375 10.4063 11.9062C10.5259 11.8885 10.6301 11.9093 10.7188 11.9688C10.1128 11.9631 9.50856 11.9943 8.90625 12.0625C8.28081 12.1981 7.65581 12.3334 7.03125 12.4688C6.84813 11.4949 6.69188 10.5157 6.5625 9.53125C6.48225 8.67906 6.451 7.82494 6.46875 6.96875C6.96656 7.03556 7.46656 7.046 7.96875 7C8.42125 6.59944 8.90044 6.23486 9.40625 5.90625C9.54 4.87006 9.24831 3.97422 8.53125 3.21875C8.17125 2.70596 7.71294 2.31012 7.15625 2.03125C7.23438 2.02641 7.28644 1.98475 7.3125 1.90625C7.46306 1.44412 7.61931 0.985794 7.78125 0.53125Z" fill="#864324"/>
<path fill-rule="evenodd" clip-rule="evenodd" d="M19.4062 12.1562C19.1037 12.271 18.7912 12.3752 18.4687 12.4687C17.7956 12.4111 17.2436 12.1194 16.8125 11.5937C16.1421 10.6799 15.8921 9.65906 16.0625 8.53125C16.5188 6.95394 17.4876 6.50606 18.9687 7.1875C20.0391 8.14825 20.4662 9.34619 20.25 10.7812C20.1527 11.3649 19.8714 11.8233 19.4062 12.1562Z" fill="#954E2C"/>
<path opacity="0.996" fill-rule="evenodd" clip-rule="evenodd" d="M26.4062 9.78125C26.8076 10.3124 27.1305 10.8957 27.375 11.5312C27.9876 13.3184 28.5813 15.1101 29.1562 16.9062C28.3546 19.7887 26.7504 22.1012 24.3438 23.8438C24.0289 23.5288 23.6956 23.2371 23.3438 22.9688C22.2224 22.0124 20.9308 21.3874 19.4688 21.0938C19.7184 20.7404 19.8434 20.3446 19.8438 19.9062C24.4741 20.9948 26.7136 19.1614 26.5625 14.4062C26.5039 14.0118 26.3893 13.6368 26.2188 13.2812C26.4946 12.1513 26.5363 11.0054 26.3438 9.84375C26.3515 9.80581 26.3723 9.785 26.4062 9.78125Z" fill="#864324"/>
<path fill-rule="evenodd" clip-rule="evenodd" d="M10.7188 11.9688C10.7604 11.9688 10.8021 11.9688 10.8438 11.9688C10.9131 12.0181 10.9964 12.0494 11.0938 12.0625C10.3544 13.1025 10.344 14.1546 11.0625 15.2188C11.4532 15.7346 11.9219 16.1616 12.4688 16.5C13.1579 16.8968 13.8663 17.2405 14.5938 17.5313C14.5085 17.9123 14.3627 18.2665 14.1563 18.5938C13.7725 18.619 13.3975 18.6815 13.0313 18.7813C12.8469 18.8318 12.6802 18.9151 12.5313 19.0313C12.5394 18.9765 12.5186 18.9348 12.4688 18.9063C10.7778 18.3075 9.309 17.37 8.0625 16.0938C7.21413 15.0594 6.82875 13.8927 6.90625 12.5938C6.94794 12.5521 6.98956 12.5104 7.03125 12.4688C7.65581 12.3334 8.28081 12.1981 8.90625 12.0625C9.50856 11.9943 10.1128 11.9631 10.7188 11.9688Z" fill="#1C1B1B"/>
<path fill-rule="evenodd" clip-rule="evenodd" d="M22.8437 12.0313C23.1234 12.087 23.3942 12.1495 23.6562 12.2188C25.5734 14.1413 25.3651 15.7976 23.0312 17.1875C22.1803 17.6034 21.2845 17.8743 20.3437 18C19.4056 18.041 18.4889 18.1139 17.5937 18.2188C17.3107 17.6712 17.1232 17.0879 17.0312 16.4688C17.0231 16.4226 17.0335 16.3809 17.0625 16.3438C18.165 16.5421 19.2587 16.4901 20.3437 16.1875C21.0004 16.0003 21.5316 15.6357 21.9375 15.0938C22.1881 14.4958 22.1256 13.9333 21.75 13.4063C21.5729 13.2292 21.3958 13.0521 21.2187 12.875C20.7727 12.6111 20.3352 12.3507 19.9062 12.0938C20.8789 11.9489 21.858 11.9281 22.8437 12.0313Z" fill="#222222"/>
<path fill-rule="evenodd" clip-rule="evenodd" d="M10.8438 11.9688C11.9629 11.9713 13.0045 12.2421 13.9688 12.7812C13.5139 13.2791 13.4202 13.8416 13.6875 14.4688C14.0268 15.006 14.4746 15.4227 15.0312 15.7188C14.9707 16.1572 14.8977 16.5947 14.8125 17.0312C14.7578 17.2126 14.6849 17.3793 14.5937 17.5312C13.8663 17.2405 13.1579 16.8968 12.4688 16.5C11.9219 16.1616 11.4532 15.7346 11.0625 15.2188C10.344 14.1546 10.3544 13.1025 11.0938 12.0625C10.9964 12.0494 10.9131 12.0181 10.8438 11.9688Z" fill="#222222"/>
<path fill-rule="evenodd" clip-rule="evenodd" d="M19.9062 12.0938C20.3352 12.3507 20.7727 12.6111 21.2187 12.875C21.3958 13.0521 21.5729 13.2292 21.75 13.4062C22.1256 13.9333 22.1881 14.4958 21.9375 15.0938C21.5316 15.6357 21.0004 16.0002 20.3437 16.1875C19.2587 16.4901 18.165 16.5421 17.0625 16.3438C17.0335 16.3809 17.0231 16.4226 17.0312 16.4688C16.8947 15.7943 16.7905 15.1068 16.7187 14.4062C17.4474 14.8943 18.2182 14.9671 19.0312 14.625C19.3824 14.2533 19.3407 13.9199 18.9062 13.625C18.2267 13.2803 17.5392 13.2594 16.8437 13.5625C16.5665 13.7571 16.504 13.9966 16.6562 14.2812C16.5819 14.3393 16.4986 14.3601 16.4062 14.3438C16.0104 14.3438 15.6146 14.3438 15.2187 14.3438C15.1795 14.8061 15.117 15.2644 15.0312 15.7188C14.4746 15.4227 14.0267 15.006 13.6875 14.4688C13.4202 13.8416 13.5139 13.2791 13.9687 12.7812C14.1237 12.8276 14.2696 12.8901 14.4062 12.9688C14.5377 13.0687 14.6627 13.1832 14.7812 13.3125C15.4991 13.2629 16.2179 13.2734 16.9375 13.3438C17.0104 13.3333 17.0833 13.3229 17.1562 13.3125C17.5553 12.9674 17.9928 12.6861 18.4687 12.4688C18.7912 12.3752 19.1037 12.271 19.4062 12.1562C19.5729 12.1354 19.7396 12.1146 19.9062 12.0938Z" fill="#282828"/>
<path fill-rule="evenodd" clip-rule="evenodd" d="M23.6562 12.2188C24.2336 12.3174 24.7961 12.4736 25.3437 12.6875C25.6937 12.8096 25.9854 13.0075 26.2187 13.2812C26.3893 13.6368 26.5039 14.0118 26.5625 14.4062C26.7136 19.1614 24.4741 20.9948 19.8437 19.9062C19.7074 19.1899 19.2699 18.7836 18.5312 18.6875C18.2818 18.6474 18.0318 18.6161 17.7812 18.5938C17.7169 18.4677 17.6544 18.3427 17.5938 18.2188C18.4889 18.1139 19.4056 18.041 20.3437 18C21.2845 17.8742 22.1803 17.6034 23.0312 17.1875C25.3651 15.7976 25.5734 14.1413 23.6562 12.2188Z" fill="#1C1C1C"/>
<path fill-rule="evenodd" clip-rule="evenodd" d="M6.90625 12.5938C6.82875 13.8927 7.21412 15.0594 8.0625 16.0938C9.309 17.37 10.7778 18.3075 12.4688 18.9063C12.5186 18.9348 12.5394 18.9765 12.5313 19.0313C12.2523 19.2558 12.1065 19.5474 12.0938 19.9063C11.0238 20.1448 9.94044 20.2385 8.84375 20.1875C6.94169 19.7644 5.82712 18.5874 5.5 16.6563C5.39212 16.1408 5.34004 15.6199 5.34375 15.0938C5.33342 14.8636 5.34384 14.6345 5.375 14.4063C5.44766 13.4254 5.95807 12.8213 6.90625 12.5938Z" fill="#161616"/>
<path fill-rule="evenodd" clip-rule="evenodd" d="M16.7187 14.4062C16.5991 14.424 16.4949 14.4032 16.4062 14.3437C16.4986 14.3601 16.5819 14.3393 16.6562 14.2812C16.504 13.9966 16.5665 13.7571 16.8437 13.5625C17.5392 13.2594 18.2267 13.2802 18.9062 13.625C19.3407 13.9199 19.3824 14.2532 19.0312 14.625C18.2182 14.9671 17.4474 14.8942 16.7187 14.4062Z" fill="#2C2C2C"/>
<path opacity="0.998" fill-rule="evenodd" clip-rule="evenodd" d="M4.46875 11.9062C4.64993 12.9837 4.9416 14.0462 5.34375 15.0938C5.34004 15.6199 5.39212 16.1407 5.5 16.6562C5.82713 18.5874 6.94169 19.7644 8.84375 20.1875C9.94044 20.2385 11.0237 20.1447 12.0938 19.9062C12.1008 20.3097 12.205 20.6847 12.4062 21.0312C11.0662 21.3265 9.85787 21.889 8.78125 22.7188C8.49913 22.9119 8.22831 23.1203 7.96875 23.3438C5.9933 20.6846 4.51413 17.7679 3.53125 14.5938C3.83281 13.6889 4.14531 12.7931 4.46875 11.9062Z" fill="#7E3D20"/>
<path fill-rule="evenodd" clip-rule="evenodd" d="M16.4062 14.3438C16.4949 14.4032 16.5991 14.424 16.7188 14.4062C16.7905 15.1068 16.8947 15.7943 17.0312 16.4688C17.1232 17.0879 17.3107 17.6712 17.5938 18.2188C17.6544 18.3427 17.7169 18.4677 17.7812 18.5938C16.6258 18.5151 15.48 18.5151 14.3438 18.5938C14.2812 18.5938 14.2188 18.5938 14.1562 18.5938C14.3627 18.2665 14.5085 17.9123 14.5938 17.5312C14.6849 17.3793 14.7578 17.2126 14.8125 17.0312C14.8977 16.5947 14.9707 16.1572 15.0312 15.7188C15.117 15.2644 15.1795 14.8061 15.2188 14.3438C15.6146 14.3438 16.0104 14.3438 16.4062 14.3438Z" fill="#8B4727"/>
<path opacity="0.997" fill-rule="evenodd" clip-rule="evenodd" d="M3.53125 14.5938C4.51413 17.7679 5.9933 20.6846 7.96875 23.3438C7.69044 23.6007 7.46125 23.8924 7.28125 24.2188C7.22137 24.2471 7.16925 24.2887 7.125 24.3438C6.97675 24.5569 6.86219 24.7861 6.78125 25.0312C6.58325 25.3542 6.45825 25.7084 6.40625 26.0938C6.34444 26.4359 6.32363 26.7901 6.34375 27.1562C6.34375 27.1771 6.34375 27.1979 6.34375 27.2188C6.29363 27.128 6.26237 27.0239 6.25 26.9062C4.45944 24.7274 3.01153 22.3316 1.90625 19.7188C2.38494 17.991 2.92661 16.2826 3.53125 14.5938Z" fill="#793A1D"/>
<path opacity="0.996" fill-rule="evenodd" clip-rule="evenodd" d="M29.1562 16.9062C29.8158 18.4401 30.2116 20.0443 30.3438 21.7188C30.3052 21.7118 30.2739 21.691 30.25 21.6562C29.8431 22.4478 29.3743 23.1978 28.8438 23.9062C28.3381 24.5059 27.7964 25.0788 27.2188 25.625C26.6992 26.0514 26.1576 26.4473 25.5938 26.8125C25.5552 26.9548 25.5135 27.0903 25.4688 27.2188C25.4688 27.0521 25.4688 26.8854 25.4688 26.7188C25.4634 25.9321 25.2343 25.2238 24.7812 24.5938C24.6354 24.3438 24.4896 24.0938 24.3438 23.8438C26.7504 22.1012 28.3546 19.7887 29.1562 16.9062Z" fill="#814021"/>
<path fill-rule="evenodd" clip-rule="evenodd" d="M14.3438 18.5938C15.48 18.5151 16.6258 18.5151 17.7813 18.5938C18.0318 18.6161 18.2818 18.6474 18.5313 18.6875C19.2699 18.7836 19.7074 19.1899 19.8438 19.9063C19.8434 20.3446 19.7184 20.7404 19.4688 21.0938C19.3529 21.3263 19.2071 21.5346 19.0313 21.7188C19.0275 21.6848 19.0067 21.664 18.9688 21.6563C17.6571 22.0923 16.4071 21.9569 15.2188 21.25C14.5018 20.7849 14.1789 20.1287 14.25 19.2813C14.3161 19.0448 14.4307 18.8364 14.5938 18.6563C14.5194 18.5982 14.4361 18.5774 14.3438 18.5938Z" fill="#4D2512"/>
<path fill-rule="evenodd" clip-rule="evenodd" d="M14.1562 18.5937C14.2188 18.5937 14.2812 18.5937 14.3438 18.5937C14.4361 18.5774 14.5194 18.5982 14.5938 18.6562C14.4307 18.8364 14.3161 19.0448 14.25 19.2812C14.1789 20.1287 14.5018 20.7849 15.2188 21.25C16.4071 21.9569 17.6571 22.0923 18.9688 21.6562C19.0067 21.664 19.0275 21.6848 19.0312 21.7187C18.4576 22.4222 17.7076 22.7972 16.7812 22.8437C15.651 22.6068 14.6406 22.1068 13.75 21.3437C13.2575 20.8274 12.9763 20.2128 12.9062 19.5C12.9332 19.2571 12.9748 19.0175 13.0312 18.7812C13.3975 18.6815 13.7725 18.619 14.1562 18.5937Z" fill="#472210"/>
<path fill-rule="evenodd" clip-rule="evenodd" d="M16.5313 18.9062C17.2663 18.7729 17.9017 18.9604 18.4375 19.4687C18.7688 20.0376 18.6334 20.4647 18.0313 20.75C17.3658 20.9364 16.7408 20.8531 16.1563 20.5C15.5 19.7909 15.625 19.2596 16.5313 18.9062Z" fill="#532813"/>
<path fill-rule="evenodd" clip-rule="evenodd" d="M13.0312 18.7812C12.9748 19.0175 12.9332 19.2571 12.9062 19.5C12.9763 20.2128 13.2575 20.8274 13.75 21.3438C14.6406 22.1068 15.651 22.6068 16.7812 22.8438C15.8671 22.9728 14.9712 22.8999 14.0938 22.625C13.3357 22.2899 12.7733 21.7587 12.4062 21.0313C12.205 20.6848 12.1008 20.3098 12.0938 19.9063C12.1065 19.5474 12.2523 19.2558 12.5312 19.0313C12.6802 18.9151 12.8469 18.8318 13.0312 18.7812Z" fill="#432010"/>
<path opacity="0.987" fill-rule="evenodd" clip-rule="evenodd" d="M1.90625 19.7188C3.01153 22.3316 4.45945 24.7274 6.25 26.9062C6.26238 27.0239 6.29363 27.128 6.34375 27.2188C6.35294 27.661 6.45713 28.0776 6.65625 28.4688C6.81806 28.8135 7.02638 29.126 7.28125 29.4062C8.13238 30.2857 9.15319 30.9003 10.3438 31.25C11.0136 31.4121 11.6802 31.5476 12.3438 31.6562C11.1703 31.5825 10.0036 31.4471 8.84375 31.25C5.32473 30.5644 3.02264 28.5122 1.9375 25.0938C1.61305 23.8004 1.50888 22.4879 1.625 21.1562C1.66606 20.6585 1.75981 20.1793 1.90625 19.7188Z" fill="#74371A"/>
<path opacity="0.997" fill-rule="evenodd" clip-rule="evenodd" d="M30.3437 21.7188C30.5245 24.7619 29.5037 27.314 27.2812 29.375C26.2916 30.1511 25.1874 30.7136 23.9687 31.0625C22.0734 31.4661 20.1567 31.6848 18.2188 31.7188C19.9236 31.7033 21.5486 31.3178 23.0937 30.5625C23.5066 30.3256 23.8816 30.0443 24.2187 29.7188C24.5143 29.4439 24.7643 29.1314 24.9687 28.7812C25.2087 28.374 25.3754 27.9365 25.4687 27.4688C25.4687 27.3854 25.4687 27.3021 25.4687 27.2188C25.5135 27.0903 25.5552 26.9548 25.5937 26.8125C26.1576 26.4473 26.6992 26.0514 27.2187 25.625C27.7964 25.0788 28.3381 24.5059 28.8437 23.9062C29.3743 23.1978 29.8431 22.4478 30.25 21.6562C30.2739 21.691 30.3052 21.7118 30.3437 21.7188Z" fill="#7D3D1F"/>
<path fill-rule="evenodd" clip-rule="evenodd" d="M12.4062 21.0312C12.7733 21.7587 13.3357 22.2899 14.0938 22.625C14.9712 22.8999 15.8671 22.9728 16.7812 22.8438C17.7076 22.7973 18.4576 22.4223 19.0312 21.7188C19.2071 21.5346 19.3529 21.3263 19.4688 21.0938C20.9308 21.3874 22.2224 22.0124 23.3438 22.9688C23.3368 23.0073 23.316 23.0386 23.2812 23.0625C19.1547 24.0876 15.0089 24.1709 10.8438 23.3125C10.1341 23.1614 9.44662 22.9635 8.78125 22.7188C9.85787 21.889 11.0662 21.3265 12.4062 21.0312Z" fill="#D8A08B"/>
<path fill-rule="evenodd" clip-rule="evenodd" d="M8.78125 22.7188C9.44662 22.9635 10.1341 23.1614 10.8438 23.3125C15.0089 24.1709 19.1547 24.0876 23.2812 23.0625C23.316 23.0386 23.3368 23.0073 23.3438 22.9687C23.6956 23.2371 24.0289 23.5288 24.3438 23.8437C24.4896 24.0937 24.6354 24.3437 24.7812 24.5937C23.5022 24.983 22.2106 25.233 20.9062 25.3437C21.0854 24.6584 20.8354 24.398 20.1562 24.5625C19.7509 25.1297 19.2092 25.4943 18.5312 25.6562C14.7846 25.9171 11.1179 25.49 7.53125 24.375C7.4175 24.3625 7.33419 24.3104 7.28125 24.2187C7.46125 23.8924 7.69044 23.6007 7.96875 23.3437C8.22831 23.1203 8.49913 22.9119 8.78125 22.7188Z" fill="#D49B86"/>
<path fill-rule="evenodd" clip-rule="evenodd" d="M7.28125 24.2188C7.33419 24.3104 7.4175 24.3625 7.53125 24.375C11.1179 25.49 14.7846 25.9171 18.5312 25.6562C18.4581 25.7091 18.3747 25.7507 18.2812 25.7812C16.661 26.2161 15.0152 26.3306 13.3437 26.125C12.9084 26.0629 12.4813 25.9692 12.0625 25.8438C11.8004 25.8872 11.6232 26.0331 11.5312 26.2812C9.93956 26.0448 8.37706 25.6802 6.84375 25.1875C6.79675 25.1456 6.77587 25.0935 6.78125 25.0312C6.86219 24.7861 6.97675 24.5569 7.125 24.3438C7.16925 24.2887 7.22137 24.2471 7.28125 24.2188Z" fill="#D09681"/>
<path fill-rule="evenodd" clip-rule="evenodd" d="M20.9062 25.3437C20.2769 26.0757 19.4852 26.5549 18.5312 26.7813C18.5944 26.4193 18.4902 26.1172 18.2188 25.875C18.2535 25.8511 18.2743 25.8198 18.2812 25.7812C18.3747 25.7507 18.4581 25.7091 18.5312 25.6562C19.2092 25.4943 19.7509 25.1297 20.1562 24.5625C20.8354 24.398 21.0854 24.6584 20.9062 25.3437Z" fill="#411E0E"/>
<path fill-rule="evenodd" clip-rule="evenodd" d="M24.7812 24.5938C25.2343 25.2238 25.4634 25.9321 25.4688 26.7187C19.0849 28.3878 12.7307 28.2836 6.40625 26.4062C6.40625 26.3021 6.40625 26.1979 6.40625 26.0937C6.45825 25.7084 6.58325 25.3542 6.78125 25.0312C6.77587 25.0935 6.79675 25.1456 6.84375 25.1875C8.37706 25.6802 9.93956 26.0448 11.5312 26.2812C11.5297 26.5389 11.6339 26.7367 11.8438 26.875C13.8541 27.3681 15.8749 27.4098 17.9062 27C18.1319 26.9539 18.3402 26.8809 18.5312 26.7812C19.4852 26.5549 20.2769 26.0757 20.9062 25.3437C22.2106 25.233 23.5022 24.983 24.7812 24.5938Z" fill="#CD937D"/>
<path fill-rule="evenodd" clip-rule="evenodd" d="M18.2813 25.7812C18.2743 25.8198 18.2535 25.8511 18.2188 25.875C18.4903 26.1172 18.5944 26.4193 18.5313 26.7812C18.3402 26.8809 18.1319 26.9539 17.9063 27C15.8749 27.4098 13.8541 27.3681 11.8438 26.875C11.6339 26.7367 11.5298 26.5389 11.5313 26.2812C11.6233 26.0331 11.8004 25.8872 12.0625 25.8437C12.4813 25.9692 12.9084 26.0629 13.3438 26.125C15.0152 26.3306 16.661 26.2161 18.2813 25.7812Z" fill="#4E230F"/>
<path fill-rule="evenodd" clip-rule="evenodd" d="M6.40625 26.0938C6.40625 26.1979 6.40625 26.3021 6.40625 26.4062C12.7307 28.2836 19.0849 28.3878 25.4688 26.7187C25.4688 26.8854 25.4688 27.0521 25.4688 27.2187C25.4688 27.3021 25.4688 27.3854 25.4688 27.4687C19.0651 29.05 12.6901 28.9458 6.34375 27.1562C6.32362 26.7901 6.34444 26.4359 6.40625 26.0938Z" fill="#CC907B"/>
<path fill-rule="evenodd" clip-rule="evenodd" d="M6.34375 27.1562C12.6901 28.9458 19.0651 29.05 25.4688 27.4688C25.3754 27.9365 25.2087 28.374 24.9688 28.7813C18.8396 30.1193 12.7354 30.0151 6.65625 28.4688C6.45712 28.0776 6.35294 27.661 6.34375 27.2188C6.34375 27.1979 6.34375 27.1771 6.34375 27.1562Z" fill="#C98D78"/>
<path fill-rule="evenodd" clip-rule="evenodd" d="M6.65625 28.4688C12.7354 30.0151 18.8396 30.1193 24.9688 28.7813C24.7643 29.1314 24.5143 29.4439 24.2188 29.7188C18.5496 30.8101 12.9038 30.7059 7.28125 29.4063C7.02637 29.126 6.81806 28.8135 6.65625 28.4688Z" fill="#C68A74"/>
<path fill-rule="evenodd" clip-rule="evenodd" d="M7.28125 29.4062C12.9038 30.7059 18.5496 30.8101 24.2188 29.7187C23.8816 30.0443 23.5066 30.3256 23.0938 30.5625C21.5486 31.3178 19.9236 31.7032 18.2188 31.7187C16.2602 31.809 14.3018 31.7882 12.3438 31.6562C11.6802 31.5476 11.0136 31.4121 10.3438 31.25C9.15319 30.9003 8.13238 30.2857 7.28125 29.4062Z" fill="#C38671"/>
<path d="M33.7461 18.5312C33.7461 17.2578 33.7656 16.0977 33.8047 15.0508L32.5273 14.8281C32.4258 14.4375 32.3555 14.0938 32.3164 13.7969C32.2773 13.5 32.2578 13.1836 32.2578 12.8477L32.2812 12.6133C32.3047 12.5039 32.3164 12.4141 32.3164 12.3438L34.0156 11.9688C34.0547 11.4844 34.1445 10.9375 34.2852 10.3281C34.4258 9.71875 34.5742 9.26953 34.7305 8.98047C34.9805 8.79297 35.2812 8.65234 35.6328 8.55859C35.9844 8.46484 36.3633 8.41797 36.7695 8.41797C37.1133 8.41797 37.4453 8.45312 37.7656 8.52344C38.0938 8.58594 38.3789 8.67188 38.6211 8.78125C38.6445 9.04688 38.6562 9.35156 38.6562 9.69531C38.6562 10.2578 38.6289 10.8945 38.5742 11.6055L40.6367 11.2305C40.9258 11.7305 41.0703 12.2734 41.0703 12.8594C41.0703 13.2656 41.0195 13.6328 40.918 13.9609C40.8242 14.2891 40.6914 14.6602 40.5195 15.0742C40.0039 15.1602 39.2969 15.2148 38.3984 15.2383C38.2891 16.5117 38.0469 18.3828 37.6719 20.8516L37.6133 21.25L37.6367 21.2734L40.3906 20.418C40.9609 20.8945 41.3086 21.6289 41.4336 22.6211C41.4336 22.6758 41.1797 22.9336 40.6719 23.3945C40.1719 23.8477 39.543 24.2695 38.7852 24.6602C38.0273 25.043 37.2031 25.2344 36.3125 25.2344C34.7578 25.2344 33.9297 24.2852 33.8281 22.3867C33.7734 21.4258 33.7461 20.1406 33.7461 18.5312ZM43.1914 18.5312C43.1914 17.2578 43.2109 16.0977 43.25 15.0508L41.9727 14.8281C41.8711 14.4375 41.8008 14.0938 41.7617 13.7969C41.7227 13.5 41.7031 13.1836 41.7031 12.8477L41.7266 12.6133C41.75 12.5039 41.7617 12.4141 41.7617 12.3438L43.4609 11.9688C43.5 11.4844 43.5898 10.9375 43.7305 10.3281C43.8711 9.71875 44.0195 9.26953 44.1758 8.98047C44.4258 8.79297 44.7266 8.65234 45.0781 8.55859C45.4297 8.46484 45.8086 8.41797 46.2148 8.41797C46.5586 8.41797 46.8906 8.45312 47.2109 8.52344C47.5391 8.58594 47.8242 8.67188 48.0664 8.78125C48.0898 9.04688 48.1016 9.35156 48.1016 9.69531C48.1016 10.2578 48.0742 10.8945 48.0195 11.6055L50.082 11.2305C50.3711 11.7305 50.5156 12.2734 50.5156 12.8594C50.5156 13.2656 50.4648 13.6328 50.3633 13.9609C50.2695 14.2891 50.1367 14.6602 49.9648 15.0742C49.4492 15.1602 48.7422 15.2148 47.8438 15.2383C47.7344 16.5117 47.4922 18.3828 47.1172 20.8516L47.0586 21.25L47.082 21.2734L49.8359 20.418C50.4062 20.8945 50.7539 21.6289 50.8789 22.6211C50.8789 22.6758 50.625 22.9336 50.1172 23.3945C49.6172 23.8477 48.9883 24.2695 48.2305 24.6602C47.4727 25.043 46.6484 25.2344 45.7578 25.2344C44.2031 25.2344 43.375 24.2852 43.2734 22.3867C43.2188 21.4258 43.1914 20.1406 43.1914 18.5312ZM51.6758 18.1914C51.6758 16.8398 51.9023 15.6328 52.3555 14.5703C52.8086 13.5078 53.5078 12.668 54.4531 12.0508C55.4062 11.4258 56.5938 11.1133 58.0156 11.1133C58.7578 11.1133 59.5 11.2031 60.2422 11.3828C60.9844 11.5547 61.6133 11.8438 62.1289 12.25C62.6055 12.6328 62.9492 13.1406 63.1602 13.7734C63.3789 14.3984 63.4883 15.0938 63.4883 15.8594C63.4883 16.3672 63.4453 16.8867 63.3594 17.418C63.2656 17.5742 63.082 17.7812 62.8086 18.0391C62.5352 18.2891 62.2148 18.5352 61.8477 18.7773C61.4805 19.0195 61.125 19.207 60.7812 19.3398C60.4531 19.3633 60.1133 19.375 59.7617 19.375C59.1445 19.375 58.5195 19.3477 57.8867 19.293C57.2539 19.2383 56.6992 19.1758 56.2227 19.1055C56.2852 19.7695 56.4883 20.3477 56.832 20.8398C57.1758 21.332 57.7227 21.5781 58.4727 21.5781C58.543 21.5781 58.6562 21.5703 58.8125 21.5547C59.2891 21.5078 59.8438 21.3828 60.4766 21.1797C61.1172 20.9688 61.7539 20.7266 62.3867 20.4531C62.6836 20.75 62.9023 21.0469 63.043 21.3438C63.1836 21.6406 63.2812 22.0664 63.3359 22.6211C63.0938 22.9023 62.6992 23.2461 62.1523 23.6523C61.6133 24.0586 60.9531 24.4258 60.1719 24.7539C59.3906 25.0742 58.5742 25.2344 57.7227 25.2344C56.4414 25.2344 55.3438 24.9258 54.4297 24.3086C53.5234 23.6836 52.8359 22.8398 52.3672 21.7773C51.9062 20.707 51.6758 19.5117 51.6758 18.1914ZM59.2227 15.4961C59.1133 15.3789 58.9297 15.2891 58.6719 15.2266C58.4141 15.1562 58.1445 15.1211 57.8633 15.1211C57.6367 15.1211 57.4062 15.1406 57.1719 15.1797C56.9453 15.2188 56.8086 15.2617 56.7617 15.3086C56.4961 15.832 56.3281 16.4258 56.2578 17.0898L59.3867 16.7852L59.2227 15.4961ZM66.2305 21.8594C66.2305 21.5234 66.2383 20.6992 66.2539 19.3867C66.2773 16.8086 66.2891 15.3984 66.2891 15.1562L65.2109 14.9805C65.0625 14.5352 64.957 14.1172 64.8945 13.7266C64.832 13.3359 64.8008 12.9414 64.8008 12.543C64.8008 12.3789 64.8047 12.2539 64.8125 12.168C64.9453 12.0508 65.1523 11.9102 65.4336 11.7461C65.7148 11.582 66.0469 11.4375 66.4297 11.3125C66.8125 11.1797 67.2031 11.1133 67.6016 11.1133C68.5312 11.1133 69.2031 11.3203 69.6172 11.7344C70.0391 12.1484 70.25 12.7539 70.25 13.5508C70.25 14.0352 70.1875 14.6562 70.0625 15.4141C69.9453 16.1641 69.8242 16.6992 69.6992 17.0195L70.1211 17.0898L70.8242 14.4414C71.1367 13.2461 71.5273 12.3945 71.9961 11.8867C72.4648 11.3711 72.9922 11.1133 73.5781 11.1133C73.9609 11.1133 74.3398 11.1719 74.7148 11.2891C75.0977 11.4062 75.3906 11.5508 75.5938 11.7227C75.8125 12.207 75.9219 12.8516 75.9219 13.6562C75.9219 14.2188 75.8672 14.7773 75.7578 15.332C75.6484 15.8789 75.5078 16.3203 75.3359 16.6562L72.875 16.3281C72.375 16.8594 71.8438 17.5977 71.2812 18.543C70.7188 19.4805 70.2695 20.3438 69.9336 21.1328L69.9219 21.7422L72.1953 21.2031C72.5781 21.7891 72.8008 22.4844 72.8633 23.2891C72.8633 23.3359 72.6875 23.5273 72.3359 23.8633C71.9844 24.1992 71.5195 24.5117 70.9414 24.8008C70.3711 25.082 69.7148 25.2227 68.9727 25.2227C68.207 25.2227 67.5664 25.0195 67.0508 24.6133C66.543 24.1992 66.2734 23.5039 66.2422 22.5273C66.2344 22.4102 66.2305 22.1875 66.2305 21.8594Z" fill="white"/>
<path d="M76.6484 22.4336C76.6484 22.0352 76.7227 21.6328 76.8711 21.2266C77.0195 20.8203 77.25 20.4375 77.5625 20.0781C78.7031 20.5781 79.6953 20.9609 80.5391 21.2266C81.3906 21.4922 82.2656 21.625 83.1641 21.625C83.3281 21.625 83.4961 21.6094 83.668 21.5781C83.8477 21.5469 83.9883 21.5039 84.0898 21.4492C84.1289 21.3633 84.1602 21.2539 84.1836 21.1211C84.207 20.9805 84.2188 20.8672 84.2188 20.7812C84.2188 20.3984 84.0352 20.0703 83.668 19.7969C83.3008 19.5234 82.8164 19.25 82.2148 18.9766L81.8047 18.7773C80.6328 18.1758 79.6914 17.6367 78.9805 17.1602C78.2773 16.6758 77.6797 16.043 77.1875 15.2617C76.7031 14.4727 76.4609 13.5078 76.4609 12.3672C76.4609 10.6953 76.9258 9.35547 77.8555 8.34766C78.793 7.33984 80.2812 6.83594 82.3203 6.83594C84.0625 6.83594 85.4414 6.94141 86.457 7.15234C86.8789 7.40234 87.2461 7.66406 87.5586 7.9375C87.8789 8.20312 88.1836 8.52734 88.4727 8.91016C88.4727 9.45703 88.418 10.0508 88.3086 10.6914C88.207 11.3242 88.0625 11.9062 87.875 12.4375C87.6953 12.9688 87.5 13.3516 87.2891 13.5859C87.1094 13.6719 86.9102 13.7383 86.6914 13.7852C86.4727 13.8242 86.2031 13.8438 85.8828 13.8438C85.5469 13.8438 85.2734 13.8203 85.0625 13.7734C84.8516 13.7266 84.6562 13.6484 84.4766 13.5391L84.1133 11.1016C83.6602 10.9766 83.1797 10.8867 82.6719 10.832C82.1641 10.7695 81.8203 10.7422 81.6406 10.75C81.3516 10.8828 81.1523 11.0703 81.043 11.3125C80.9414 11.5469 80.8906 11.8281 80.8906 12.1562C80.8906 12.5078 80.9844 12.8125 81.1719 13.0703C81.3672 13.3203 81.6016 13.5273 81.875 13.6914C82.1484 13.8555 82.5 14.0391 82.9297 14.2422L83.4453 14.5C84.5625 15.0859 85.4414 15.5977 86.082 16.0352C86.7227 16.4727 87.2578 17.0273 87.6875 17.6992C88.125 18.3633 88.3438 19.168 88.3438 20.1133C88.3438 21.2148 88.0547 22.1641 87.4766 22.9609C86.8984 23.75 86.1562 24.3203 85.25 24.6719C84.7578 24.8672 84.2148 25.0078 83.6211 25.0938C83.0273 25.1797 82.3398 25.2227 81.5586 25.2227C81.0273 25.2227 80.457 25.1562 79.8477 25.0234C79.2383 24.8906 78.6445 24.6562 78.0664 24.3203C77.4961 23.9844 77.0391 23.5352 76.6953 22.9727C76.6641 22.8242 76.6484 22.6445 76.6484 22.4336ZM90.7461 18.5312C90.7461 17.2578 90.7656 16.0977 90.8047 15.0508L89.5273 14.8281C89.4258 14.4375 89.3555 14.0938 89.3164 13.7969C89.2773 13.5 89.2578 13.1836 89.2578 12.8477L89.2812 12.6133C89.3047 12.5039 89.3164 12.4141 89.3164 12.3438L91.0156 11.9688C91.0547 11.4844 91.1445 10.9375 91.2852 10.3281C91.4258 9.71875 91.5742 9.26953 91.7305 8.98047C91.9805 8.79297 92.2812 8.65234 92.6328 8.55859C92.9844 8.46484 93.3633 8.41797 93.7695 8.41797C94.1133 8.41797 94.4453 8.45312 94.7656 8.52344C95.0938 8.58594 95.3789 8.67188 95.6211 8.78125C95.6445 9.04688 95.6562 9.35156 95.6562 9.69531C95.6562 10.2578 95.6289 10.8945 95.5742 11.6055L97.6367 11.2305C97.9258 11.7305 98.0703 12.2734 98.0703 12.8594C98.0703 13.2656 98.0195 13.6328 97.918 13.9609C97.8242 14.2891 97.6914 14.6602 97.5195 15.0742C97.0039 15.1602 96.2969 15.2148 95.3984 15.2383C95.2891 16.5117 95.0469 18.3828 94.6719 20.8516L94.6133 21.25L94.6367 21.2734L97.3906 20.418C97.9609 20.8945 98.3086 21.6289 98.4336 22.6211C98.4336 22.6758 98.1797 22.9336 97.6719 23.3945C97.1719 23.8477 96.543 24.2695 95.7852 24.6602C95.0273 25.043 94.2031 25.2344 93.3125 25.2344C91.7578 25.2344 90.9297 24.2852 90.8281 22.3867C90.7734 21.4258 90.7461 20.1406 90.7461 18.5312ZM100.426 21.8594C100.426 21.5234 100.434 20.6992 100.449 19.3867C100.473 16.8086 100.484 15.3984 100.484 15.1562L99.4062 14.9805C99.2578 14.5352 99.1523 14.1172 99.0898 13.7266C99.0273 13.3359 98.9961 12.9414 98.9961 12.543C98.9961 12.3789 99 12.2539 99.0078 12.168C99.1406 12.0508 99.3477 11.9102 99.6289 11.7461C99.9102 11.582 100.242 11.4375 100.625 11.3125C101.008 11.1797 101.398 11.1133 101.797 11.1133C102.727 11.1133 103.398 11.3203 103.812 11.7344C104.234 12.1484 104.445 12.7539 104.445 13.5508C104.445 14.0352 104.383 14.6562 104.258 15.4141C104.141 16.1641 104.02 16.6992 103.895 17.0195L104.316 17.0898L105.02 14.4414C105.332 13.2461 105.723 12.3945 106.191 11.8867C106.66 11.3711 107.188 11.1133 107.773 11.1133C108.156 11.1133 108.535 11.1719 108.91 11.2891C109.293 11.4062 109.586 11.5508 109.789 11.7227C110.008 12.207 110.117 12.8516 110.117 13.6562C110.117 14.2188 110.062 14.7773 109.953 15.332C109.844 15.8789 109.703 16.3203 109.531 16.6562L107.07 16.3281C106.57 16.8594 106.039 17.5977 105.477 18.543C104.914 19.4805 104.465 20.3438 104.129 21.1328L104.117 21.7422L106.391 21.2031C106.773 21.7891 106.996 22.4844 107.059 23.2891C107.059 23.3359 106.883 23.5273 106.531 23.8633C106.18 24.1992 105.715 24.5117 105.137 24.8008C104.566 25.082 103.91 25.2227 103.168 25.2227C102.402 25.2227 101.762 25.0195 101.246 24.6133C100.738 24.1992 100.469 23.5039 100.438 22.5273C100.43 22.4102 100.426 22.1875 100.426 21.8594ZM110.973 18.1914C110.973 16.8398 111.199 15.6328 111.652 14.5703C112.105 13.5078 112.805 12.668 113.75 12.0508C114.703 11.4258 115.891 11.1133 117.312 11.1133C118.055 11.1133 118.797 11.2031 119.539 11.3828C120.281 11.5547 120.91 11.8438 121.426 12.25C121.902 12.6328 122.246 13.1406 122.457 13.7734C122.676 14.3984 122.785 15.0938 122.785 15.8594C122.785 16.3672 122.742 16.8867 122.656 17.418C122.562 17.5742 122.379 17.7812 122.105 18.0391C121.832 18.2891 121.512 18.5352 121.145 18.7773C120.777 19.0195 120.422 19.207 120.078 19.3398C119.75 19.3633 119.41 19.375 119.059 19.375C118.441 19.375 117.816 19.3477 117.184 19.293C116.551 19.2383 115.996 19.1758 115.52 19.1055C115.582 19.7695 115.785 20.3477 116.129 20.8398C116.473 21.332 117.02 21.5781 117.77 21.5781C117.84 21.5781 117.953 21.5703 118.109 21.5547C118.586 21.5078 119.141 21.3828 119.773 21.1797C120.414 20.9688 121.051 20.7266 121.684 20.4531C121.98 20.75 122.199 21.0469 122.34 21.3438C122.48 21.6406 122.578 22.0664 122.633 22.6211C122.391 22.9023 121.996 23.2461 121.449 23.6523C120.91 24.0586 120.25 24.4258 119.469 24.7539C118.688 25.0742 117.871 25.2344 117.02 25.2344C115.738 25.2344 114.641 24.9258 113.727 24.3086C112.82 23.6836 112.133 22.8398 111.664 21.7773C111.203 20.707 110.973 19.5117 110.973 18.1914ZM118.52 15.4961C118.41 15.3789 118.227 15.2891 117.969 15.2266C117.711 15.1562 117.441 15.1211 117.16 15.1211C116.934 15.1211 116.703 15.1406 116.469 15.1797C116.242 15.2188 116.105 15.2617 116.059 15.3086C115.793 15.832 115.625 16.4258 115.555 17.0898L118.684 16.7852L118.52 15.4961ZM128.105 17.2773C128.566 17.2773 129.074 17.3242 129.629 17.418C130.191 17.5117 130.707 17.625 131.176 17.7578V17.3945C131.176 17.1523 131.168 16.8828 131.152 16.5859C131.145 16.2891 131.129 16.0938 131.105 16C131.035 15.8672 130.832 15.7305 130.496 15.5898C130.168 15.4492 129.629 15.3789 128.879 15.3789C128.418 15.3789 127.941 15.4375 127.449 15.5547C126.965 15.6641 126.426 15.8125 125.832 16C125.512 15.4688 125.254 14.9648 125.059 14.4883C124.871 14.0039 124.777 13.5195 124.777 13.0352C124.777 12.8867 124.789 12.7383 124.812 12.5898C126.078 11.6055 127.715 11.1133 129.723 11.1133C130.832 11.1133 131.816 11.2383 132.676 11.4883C133.535 11.7383 134.242 12.2227 134.797 12.9414C135.352 13.6602 135.629 14.6797 135.629 16C135.629 17.2891 135.477 18.5391 135.172 19.75C134.875 20.9531 134.723 21.5664 134.715 21.5898L136.414 20.8633C136.641 21.1055 136.84 21.4023 137.012 21.7539C137.191 22.0977 137.305 22.4961 137.352 22.9492C137.242 23.1836 137.004 23.4844 136.637 23.8516C136.27 24.2109 135.82 24.5312 135.289 24.8125C134.758 25.0938 134.203 25.2344 133.625 25.2344C132.977 25.2344 132.484 25.043 132.148 24.6602C131.82 24.2773 131.656 23.7812 131.656 23.1719C131.656 22.8281 131.707 22.4805 131.809 22.1289L131.457 22.0234C131.238 23.2578 130.773 24.1016 130.062 24.5547C129.352 25.0078 128.566 25.2344 127.707 25.2344C127.145 25.2344 126.602 25.0781 126.078 24.7656C125.555 24.4453 125.129 23.9844 124.801 23.3828C124.473 22.7734 124.309 22.0625 124.309 21.25C124.309 19.9531 124.633 18.9688 125.281 18.2969C125.93 17.6172 126.871 17.2773 128.105 17.2773ZM129.441 21.7422C129.637 21.7031 129.867 21.5938 130.133 21.4141C130.406 21.2344 130.648 21.0195 130.859 20.7695C131.07 20.5195 131.195 20.2812 131.234 20.0547L131.164 19.7734C130.75 19.7188 130.309 19.6914 129.84 19.6914C129.441 19.6914 129.168 19.7227 129.02 19.7852C128.77 20.0664 128.645 20.3789 128.645 20.7227C128.645 20.9727 128.707 21.1992 128.832 21.4023C128.965 21.6055 129.168 21.7188 129.441 21.7422ZM139.039 20.9219C139.039 19.6484 139.055 18.6875 139.086 18.0391C139.117 17.3828 139.199 16.4219 139.332 15.1562L137.984 14.9805C137.82 14.4727 137.711 14.0195 137.656 13.6211C137.609 13.2227 137.586 12.707 137.586 12.0742C137.711 11.9648 137.918 11.8359 138.207 11.6875C138.504 11.5312 138.852 11.3984 139.25 11.2891C139.656 11.1719 140.066 11.1133 140.48 11.1133C141.426 11.1133 142.094 11.3164 142.484 11.7227C142.883 12.1289 143.082 12.7383 143.082 13.5508C143.082 14.0039 143.016 14.6172 142.883 15.3906C142.664 16.6328 142.555 17.2852 142.555 17.3477C142.555 17.3867 142.582 17.4258 142.637 17.4648C142.691 17.4961 142.75 17.5117 142.812 17.5117C142.883 17.5117 142.93 17.4844 142.953 17.4297C142.945 17.4609 143.035 17.0664 143.223 16.2461C143.449 15.168 143.68 14.2891 143.914 13.6094C144.156 12.9297 144.539 12.3477 145.062 11.8633C145.586 11.3789 146.297 11.1367 147.195 11.1367C148.305 11.1367 149.105 11.457 149.598 12.0977C150.09 12.7305 150.336 13.5742 150.336 14.6289C150.336 15.4648 150.195 16.3945 149.914 17.418C149.914 17.457 149.941 17.4961 149.996 17.5352C150.051 17.5664 150.109 17.582 150.172 17.582C150.242 17.582 150.289 17.5547 150.312 17.5L150.477 16.8438C150.758 15.6875 151.035 14.7266 151.309 13.9609C151.59 13.1953 152.008 12.5352 152.562 11.9805C153.125 11.418 153.855 11.1367 154.754 11.1367C155.934 11.1367 156.781 11.5156 157.297 12.2734C157.82 13.0312 158.082 13.9844 158.082 15.1328C158.082 15.9453 158.004 16.7617 157.848 17.582C157.699 18.4023 157.539 19.0898 157.367 19.6445C157.203 20.1992 157 20.8398 156.758 21.5664L156.781 21.5898L158.516 20.8633C159.125 21.3867 159.48 22.082 159.582 22.9492C159.582 23.0039 159.406 23.2305 159.055 23.6289C158.703 24.0195 158.238 24.3867 157.66 24.7305C157.09 25.0664 156.434 25.2344 155.691 25.2344C154.949 25.2344 154.344 25.0352 153.875 24.6367C153.406 24.2383 153.172 23.5586 153.172 22.5977C153.172 21.5273 153.191 20.4297 153.23 19.3047C153.277 18.1719 153.344 17.1562 153.43 16.2578C153.297 16.1484 153.113 16.0898 152.879 16.082C152.645 16.3086 152.352 16.8047 152 17.5703C151.648 18.3281 151.324 19.1406 151.027 20.0078C150.73 20.8672 150.543 21.5391 150.465 22.0234C150.574 22.7891 150.742 23.5469 150.969 24.2969C150.828 24.5625 150.539 24.7852 150.102 24.9648C149.664 25.1445 149.125 25.2344 148.484 25.2344C147.906 25.2344 147.453 25.1875 147.125 25.0938C146.797 25 146.57 24.9023 146.445 24.8008C146.328 24.6992 146.27 24.6328 146.27 24.6016C146.262 24.5312 146.242 24.3477 146.211 24.0508C146.18 23.7461 146.148 23.3242 146.117 22.7852C146.086 22.2383 146.07 21.6172 146.07 20.9219C146.07 20.2578 146.121 19.4258 146.223 18.4258C146.23 18.3008 146.254 18.0039 146.293 17.5352C146.332 17.0664 146.352 16.6406 146.352 16.2578C146.219 16.1484 146.035 16.0898 145.801 16.082C145.668 16.1836 145.297 16.832 144.688 18.0273C144.078 19.2227 143.672 20.0664 143.469 20.5586C143.453 20.668 143.445 20.7734 143.445 20.875C143.445 21.2656 143.504 21.793 143.621 22.457C143.738 23.1133 143.883 23.7266 144.055 24.2969C143.914 24.5625 143.625 24.7852 143.188 24.9648C142.75 25.1445 142.211 25.2344 141.57 25.2344C140.992 25.2344 140.527 25.1875 140.176 25.0938C139.832 25 139.59 24.9023 139.449 24.8008C139.309 24.6914 139.238 24.625 139.238 24.6016C139.23 24.5312 139.211 24.3477 139.18 24.0508C139.148 23.7461 139.117 23.3242 139.086 22.7852C139.055 22.2383 139.039 21.6172 139.039 20.9219Z" fill="#0896E7"/>
</svg>
